<svg width="80" height="80" xmlns="http://www.w3.org/2000/svg">
  <defs>
    <pattern id="pawPattern" x="0" y="0" width="80" height="80" patternUnits="userSpaceOnUse">
      <!-- Paw Print 1 -->
      <g opacity="0.12" fill="#1A1A1A">
        <ellipse cx="15" cy="12" rx="3" ry="4"/>
        <ellipse cx="20" cy="10" rx="3" ry="4"/>
        <ellipse cx="25" cy="12" rx="3" ry="4"/>
        <ellipse cx="20" cy="16" rx="5" ry="6"/>
      </g>
      
      <!-- Bone 1 -->
      <g opacity="0.12" fill="none" stroke="#1A1A1A" stroke-width="1.5">
        <line x1="50" y1="15" x2="65" y2="20"/>
        <circle cx="50" cy="15" r="2"/>
        <circle cx="65" cy="20" r="2"/>
      </g>
      
      <!-- Scissors 1 -->
      <g opacity="0.12" stroke="#1A1A1A" stroke-width="1" fill="none">
        <circle cx="35" cy="45" r="3"/>
        <circle cx="45" cy="45" r="3"/>
        <line x1="38" y1="45" x2="42" y2="45"/>
        <line x1="40" y1="45" x2="40" y2="55"/>
      </g>
      
      <!-- Paw Print 2 -->
      <g opacity="0.12" fill="#1A1A1A">
        <ellipse cx="60" cy="55" rx="2.5" ry="3.5"/>
        <ellipse cx="65" cy="53" rx="2.5" ry="3.5"/>
        <ellipse cx="70" cy="55" rx="2.5" ry="3.5"/>
        <ellipse cx="65" cy="59" rx="4" ry="5"/>
      </g>
      
      <!-- Bone 2 -->
      <g opacity="0.12" fill="none" stroke="#1A1A1A" stroke-width="1.5">
        <line x1="10" y1="60" x2="20" y2="70"/>
        <circle cx="10" cy="60" r="2"/>
        <circle cx="20" cy="70" r="2"/>
      </g>
    </pattern>
  </defs>
  <rect width="80" height="80" fill="url(#pawPattern)"/>
</svg>
